<svg width="24" height="24" xmlns="http://www.w3.org/2000/svg">
  <g fill="none" fill-rule="evenodd">
    <path d="M24 24H0V0h24z"/>
    <path d="M13 12h-.01a6.458 6.458 0 001.17-7.32h0c-.11-.26.01-.55.26-.66.1-.05.22-.06.33-.02l-.01-.01c1.42.36 2.72 1.1 3.76 2.14l-.01-.01c3.22 3.13 3.29 8.29.15 11.52v-.01c-3.23 3.13-8.39 3.07-11.53-.16h0a8.276 8.276 0 01-2.16-3.77l-.01-.01a.49.49 0 01.34-.62.47.47 0 01.33.01h0c2.43 1.19 5.36.72 7.3-1.17L13 12z" stroke="#7D7E85" stroke-width="1.5" stroke-linecap="round" stroke-linejoin="round"/>
  </g>
</svg>